<svg width="128" height="128" viewBox="0 0 128 128" fill="none" xmlns="http://www.w3.org/2000/svg">
<rect width="128" height="128" rx="20" fill="white"/>
<rect x="4" y="4" width="120" height="120" rx="17" fill="white" stroke="#1A2327" stroke-width="3"/>
<path d="M75.1328 44.9805C75.6615 44.9987 76.4271 45.0352 77.4297 45.0898C80.237 45.2357 82.1419 45.3086 83.1445 45.3086C84.4023 45.3086 86.6628 45.2266 89.9258 45.0625C90.6549 45.026 91.2109 44.9987 91.5938 44.9805V47.4414H90.9648C89.3971 47.4414 88.3307 47.8242 87.7656 48.5898C87.2188 49.3555 86.9453 51.3971 86.9453 54.7148V55.9453V61.9336C88.4766 61.9883 89.9896 62.0339 91.4844 62.0703C92.9792 62.0885 94.4557 62.0977 95.9141 62.0977C97.2812 62.0977 98.8216 62.0885 100.535 62.0703C102.249 62.0339 104.135 61.9883 106.195 61.9336V54.7148C106.195 51.3971 105.922 49.3555 105.375 48.5898C104.828 47.8242 103.762 47.4414 102.176 47.4414H101.547V44.9805C103.297 45.0898 104.874 45.1719 106.277 45.2266C107.681 45.2812 108.93 45.3086 110.023 45.3086C111.026 45.3086 112.931 45.2357 115.738 45.0898C116.723 45.0352 117.488 44.9987 118.035 44.9805V47.4141C117.926 47.4141 117.798 47.4141 117.652 47.4141C117.525 47.3958 117.352 47.3867 117.133 47.3867C115.693 47.3867 114.717 47.8607 114.207 48.8086C113.697 49.7383 113.441 51.8164 113.441 55.043C113.441 55.5898 113.451 56.5742 113.469 57.9961C113.487 59.418 113.496 60.5846 113.496 61.4961V67.2656C113.496 68.3594 113.487 69.7357 113.469 71.3945C113.451 73.0352 113.441 74.138 113.441 74.7031C113.441 77.5651 113.706 79.4336 114.234 80.3086C114.763 81.1654 115.766 81.5938 117.242 81.5938C117.516 81.5938 117.716 81.5938 117.844 81.5938C117.99 81.5755 118.117 81.5573 118.227 81.5391V84C117.607 83.9635 116.732 83.918 115.602 83.8633C112.776 83.7357 110.898 83.6719 109.969 83.6719C108.93 83.6719 107.681 83.6992 106.223 83.7539C104.764 83.8086 103.096 83.8906 101.219 84V81.5391C101.365 81.5391 101.547 81.5482 101.766 81.5664C101.984 81.5846 102.139 81.5938 102.23 81.5938C103.798 81.5938 104.846 81.1836 105.375 80.3633C105.922 79.543 106.195 77.4284 106.195 74.0195V71.9688V66.1445C104.354 66.1081 102.659 66.0807 101.109 66.0625C99.5599 66.0443 98.0286 66.0352 96.5156 66.0352C93.9271 66.0352 91.9674 66.0443 90.6367 66.0625C89.3242 66.0807 88.0938 66.1081 86.9453 66.1445V74.0195C86.9453 77.4284 87.2096 79.543 87.7383 80.3633C88.2852 81.1836 89.3424 81.5938 90.9102 81.5938C91.0013 81.5938 91.1562 81.5846 91.375 81.5664C91.612 81.5482 91.7943 81.5391 91.9219 81.5391V84C90.026 83.8906 88.349 83.8086 86.8906 83.7539C85.4323 83.6992 84.2018 83.6719 83.1992 83.6719C82.2513 83.6719 80.3737 83.7357 77.5664 83.8633C76.4362 83.918 75.5521 83.9635 74.9141 84V81.5391C75.0417 81.5573 75.1784 81.5755 75.3242 81.5938C75.4701 81.5938 75.6888 81.5938 75.9805 81.5938C77.4388 81.5938 78.4232 81.1198 78.9336 80.1719C79.4622 79.2057 79.7266 77.1367 79.7266 73.9648C79.7266 73.418 79.7174 72.4062 79.6992 70.9297C79.681 69.4531 79.6719 68.25 79.6719 67.3203V61.4961C79.6719 60.4753 79.681 59.181 79.6992 57.6133C79.7174 56.0456 79.7266 54.9883 79.7266 54.4414C79.7266 51.5247 79.4622 49.6198 78.9336 48.7266C78.4049 47.8333 77.4388 47.3867 76.0352 47.3867C75.7982 47.3867 75.6159 47.3958 75.4883 47.4141C75.3607 47.4141 75.2422 47.4141 75.1328 47.4141V44.9805Z" fill="#1A2327"/>
<path d="M31.1094 75.1953L38.6836 56L37.0977 51.0781C36.6237 49.5651 36.1315 48.5716 35.6211 48.0977C35.1107 47.6237 34.3542 47.3867 33.3516 47.3867C33.224 47.3867 33.0417 47.3958 32.8047 47.4141C32.5677 47.4323 32.3945 47.4414 32.2852 47.4414V44.9805C32.5951 44.9805 33.0599 44.9987 33.6797 45.0352C36.9245 45.2174 39.1667 45.3086 40.4062 45.3086C41.2448 45.3086 42.3021 45.2812 43.5781 45.2266C44.8724 45.1719 46.4128 45.0898 48.1992 44.9805V47.4414C48.0534 47.4414 47.862 47.4323 47.625 47.4141C47.4062 47.3958 47.2422 47.3867 47.1328 47.3867C46.0755 47.3867 45.3281 47.5508 44.8906 47.8789C44.4714 48.207 44.2617 48.7904 44.2617 49.6289C44.2617 50.0299 44.362 50.6133 44.5625 51.3789C44.763 52.1445 45.0729 53.1836 45.4922 54.4961L52.1094 75.1406L53.6133 70.8203C58.0612 58.0964 60.2852 51.0508 60.2852 49.6836C60.2852 48.8633 60.0482 48.2891 59.5742 47.9609C59.1185 47.6146 58.2891 47.4414 57.0859 47.4414H56.3203V44.9805C56.7214 44.9987 57.2773 45.026 57.9883 45.0625C60.5404 45.2266 62.2812 45.3086 63.2109 45.3086C64.0859 45.3086 65.7904 45.2266 68.3242 45.0625C69.0534 45.026 69.6185 44.9987 70.0195 44.9805V47.4414C69.9466 47.4232 69.8464 47.4141 69.7188 47.4141C69.5911 47.3958 69.418 47.3867 69.1992 47.3867C67.2487 47.3867 65.207 50.4492 63.0742 56.5742C62.2539 58.9076 61.5885 60.7669 61.0781 62.1523L58.7266 68.332C58.4531 69.0065 58.0612 70.0091 57.5508 71.3398C55.1992 77.4648 53.668 81.8125 52.957 84.3828H47.7891C47.6068 83.5807 47.3971 82.7695 47.1602 81.9492C46.9414 81.1289 46.6497 80.1901 46.2852 79.1328L40.5156 61.7695L33.7891 78.7227C33.2422 80.0898 32.832 81.1836 32.5586 82.0039C32.3034 82.8242 32.0846 83.6172 31.9023 84.3828H26.7344C26.5156 83.1615 25.0755 78.8685 22.4141 71.5039L21.4844 68.9336L18.7227 61.332C18.3034 60.1107 17.7474 58.4701 17.0547 56.4102C15.013 50.3581 13.0716 47.332 11.2305 47.332C11.0664 47.332 10.8112 47.3594 10.4648 47.4141C10.4102 47.4141 10.3646 47.4232 10.3281 47.4414V44.9805C12.1693 45.0898 13.737 45.1719 15.0312 45.2266C16.3255 45.2812 17.3737 45.3086 18.1758 45.3086C19.1055 45.3086 20.9284 45.2357 23.6445 45.0898C24.6471 45.0352 25.4219 44.9987 25.9688 44.9805V47.4414H25.3398C24.4102 47.4414 23.7174 47.6146 23.2617 47.9609C22.8242 48.2891 22.6055 48.7995 22.6055 49.4922C22.6055 50.112 22.9792 51.4792 23.7266 53.5938L23.7812 53.7578L31.1094 75.1953Z" fill="#1A2327"/>
<mask id="path-5-outside-1_27_89" maskUnits="userSpaceOnUse" x="55" y="54" width="30" height="28" fill="black">
<rect fill="white" x="55" y="54" width="30" height="28"/>
<path d="M66.9365 65.7227C67.7334 65.125 68.3421 64.4222 68.7627 63.6143C69.1943 62.7952 69.4102 61.9209 69.4102 60.9912C69.4102 60.0947 69.1335 59.3532 68.5801 58.7666C68.0378 58.1689 67.3405 57.8701 66.4883 57.8701C65.7578 57.8701 65.1491 58.1247 64.6621 58.6338C64.1862 59.1318 63.9482 59.7738 63.9482 60.5596C63.9482 61.2568 64.1973 62.0426 64.6953 62.917C65.1934 63.7803 65.9404 64.7155 66.9365 65.7227ZM70.5059 75.75L64.1143 68.1963C63.0296 68.6501 62.2217 69.2201 61.6904 69.9062C61.1702 70.5814 60.9102 71.3949 60.9102 72.3467C60.9102 73.7744 61.4248 75.0195 62.4541 76.082C63.4834 77.1335 64.6953 77.6592 66.0898 77.6592C66.7982 77.6592 67.5231 77.4987 68.2646 77.1777C69.0062 76.8568 69.7533 76.3809 70.5059 75.75ZM71.668 77.0781C70.3952 78.2292 69.1169 79.109 67.833 79.7178C66.5492 80.3154 65.3206 80.6143 64.1475 80.6143C62.0225 80.6143 60.2793 79.9723 58.918 78.6885C57.5566 77.3936 56.876 75.7555 56.876 73.7744C56.876 72.1364 57.3906 70.7474 58.4199 69.6074C59.4603 68.4674 61.0042 67.5931 63.0518 66.9844C62.1663 66.1654 61.4967 65.3242 61.043 64.4609C60.6003 63.5977 60.3789 62.7012 60.3789 61.7715C60.3789 60.1335 61.0153 58.75 62.2881 57.6211C63.5719 56.4922 65.1657 55.9277 67.0693 55.9277C68.6631 55.9277 69.9525 56.3538 70.9375 57.2061C71.9225 58.0472 72.415 59.1374 72.415 60.4766C72.415 61.7936 72.0387 62.9779 71.2861 64.0293C70.5335 65.0807 69.4102 65.9938 67.916 66.7686L73.3281 72.9609C74.3796 71.7988 75.2318 70.5814 75.8848 69.3086C76.5378 68.0247 76.8643 67.0231 76.8643 66.3037C76.8643 66.0713 76.82 65.8721 76.7314 65.7061C76.6429 65.529 76.5156 65.3962 76.3496 65.3076C76.2168 65.2412 76.0231 65.1914 75.7686 65.1582C75.514 65.125 75.1986 65.1084 74.8223 65.1084V63.6143C75.099 63.6253 75.4974 63.6475 76.0176 63.6807C77.3678 63.7692 78.2754 63.8135 78.7402 63.8135C79.1608 63.8135 79.6921 63.7969 80.334 63.7637C80.987 63.7305 81.723 63.6807 82.542 63.6143V65.1084H81.9941C81.3965 65.1084 80.9316 65.2135 80.5996 65.4238C80.2786 65.6341 79.93 66.1322 79.5537 66.918C78.7679 68.5339 77.9655 69.9395 77.1465 71.1348C76.3385 72.319 75.4753 73.3594 74.5566 74.2559L75.2705 75.0693C76.1559 76.0654 76.8809 76.7461 77.4453 77.1113C78.0208 77.4766 78.5964 77.6592 79.1719 77.6592C79.6367 77.6592 80.1458 77.5098 80.6992 77.2109C81.2526 76.901 81.8005 76.4694 82.3428 75.916L83.2891 76.8457C82.4258 78.0964 81.4906 79.0371 80.4834 79.668C79.4762 80.2988 78.4027 80.6143 77.2627 80.6143C76.3662 80.6143 75.5029 80.3597 74.6729 79.8506C73.8428 79.3415 72.8411 78.4173 71.668 77.0781Z"/>
</mask>
<path d="M66.9365 65.7227C67.7334 65.125 68.3421 64.4222 68.7627 63.6143C69.1943 62.7952 69.4102 61.9209 69.4102 60.9912C69.4102 60.0947 69.1335 59.3532 68.5801 58.7666C68.0378 58.1689 67.3405 57.8701 66.4883 57.8701C65.7578 57.8701 65.1491 58.1247 64.6621 58.6338C64.1862 59.1318 63.9482 59.7738 63.9482 60.5596C63.9482 61.2568 64.1973 62.0426 64.6953 62.917C65.1934 63.7803 65.9404 64.7155 66.9365 65.7227ZM70.5059 75.75L64.1143 68.1963C63.0296 68.6501 62.2217 69.2201 61.6904 69.9062C61.1702 70.5814 60.9102 71.3949 60.9102 72.3467C60.9102 73.7744 61.4248 75.0195 62.4541 76.082C63.4834 77.1335 64.6953 77.6592 66.0898 77.6592C66.7982 77.6592 67.5231 77.4987 68.2646 77.1777C69.0062 76.8568 69.7533 76.3809 70.5059 75.75ZM71.668 77.0781C70.3952 78.2292 69.1169 79.109 67.833 79.7178C66.5492 80.3154 65.3206 80.6143 64.1475 80.6143C62.0225 80.6143 60.2793 79.9723 58.918 78.6885C57.5566 77.3936 56.876 75.7555 56.876 73.7744C56.876 72.1364 57.3906 70.7474 58.4199 69.6074C59.4603 68.4674 61.0042 67.5931 63.0518 66.9844C62.1663 66.1654 61.4967 65.3242 61.043 64.4609C60.6003 63.5977 60.3789 62.7012 60.3789 61.7715C60.3789 60.1335 61.0153 58.75 62.2881 57.6211C63.5719 56.4922 65.1657 55.9277 67.0693 55.9277C68.6631 55.9277 69.9525 56.3538 70.9375 57.2061C71.9225 58.0472 72.415 59.1374 72.415 60.4766C72.415 61.7936 72.0387 62.9779 71.2861 64.0293C70.5335 65.0807 69.4102 65.9938 67.916 66.7686L73.3281 72.9609C74.3796 71.7988 75.2318 70.5814 75.8848 69.3086C76.5378 68.0247 76.8643 67.0231 76.8643 66.3037C76.8643 66.0713 76.82 65.8721 76.7314 65.7061C76.6429 65.529 76.5156 65.3962 76.3496 65.3076C76.2168 65.2412 76.0231 65.1914 75.7686 65.1582C75.514 65.125 75.1986 65.1084 74.8223 65.1084V63.6143C75.099 63.6253 75.4974 63.6475 76.0176 63.6807C77.3678 63.7692 78.2754 63.8135 78.7402 63.8135C79.1608 63.8135 79.6921 63.7969 80.334 63.7637C80.987 63.7305 81.723 63.6807 82.542 63.6143V65.1084H81.9941C81.3965 65.1084 80.9316 65.2135 80.5996 65.4238C80.2786 65.6341 79.93 66.1322 79.5537 66.918C78.7679 68.5339 77.9655 69.9395 77.1465 71.1348C76.3385 72.319 75.4753 73.3594 74.5566 74.2559L75.2705 75.0693C76.1559 76.0654 76.8809 76.7461 77.4453 77.1113C78.0208 77.4766 78.5964 77.6592 79.1719 77.6592C79.6367 77.6592 80.1458 77.5098 80.6992 77.2109C81.2526 76.901 81.8005 76.4694 82.3428 75.916L83.2891 76.8457C82.4258 78.0964 81.4906 79.0371 80.4834 79.668C79.4762 80.2988 78.4027 80.6143 77.2627 80.6143C76.3662 80.6143 75.5029 80.3597 74.6729 79.8506C73.8428 79.3415 72.8411 78.4173 71.668 77.0781Z" fill="#1A2327"/>
<path d="M66.9365 65.7227L66.2255 66.4258L66.8388 67.0459L67.5365 66.5227L66.9365 65.7227ZM68.7627 63.6143L67.878 63.148L67.8757 63.1525L68.7627 63.6143ZM68.5801 58.7666L67.8395 59.4386L67.846 59.4458L67.8527 59.4528L68.5801 58.7666ZM64.6621 58.6338L63.9395 57.9426L63.9391 57.9429L64.6621 58.6338ZM64.6953 62.917L63.8264 63.412L63.8291 63.4167L64.6953 62.917ZM70.5059 75.75L71.1483 76.5164L71.9182 75.871L71.2692 75.1041L70.5059 75.75ZM64.1143 68.1963L64.8776 67.5503L64.4043 66.991L63.7283 67.2738L64.1143 68.1963ZM61.6904 69.9062L60.8997 69.2941L60.8983 69.2959L61.6904 69.9062ZM62.4541 76.082L61.7359 76.7778L61.7395 76.7816L62.4541 76.082ZM71.668 77.0781L72.4202 76.4192L71.7507 75.655L70.9972 76.3364L71.668 77.0781ZM67.833 79.7178L68.255 80.6244L68.2614 80.6214L67.833 79.7178ZM58.918 78.6885L58.2287 79.413L58.2319 79.416L58.918 78.6885ZM58.4199 69.6074L57.6813 68.9333L57.6777 68.9373L58.4199 69.6074ZM63.0518 66.9844L63.3367 67.9429L65.0197 67.4426L63.7308 66.2503L63.0518 66.9844ZM61.043 64.4609L60.1531 64.9173L60.1578 64.9262L61.043 64.4609ZM62.2881 57.6211L61.6277 56.8701L61.6245 56.873L62.2881 57.6211ZM70.9375 57.2061L70.2832 57.9623L70.2881 57.9665L70.9375 57.2061ZM67.916 66.7686L67.4557 65.8808L66.3246 66.4673L67.1631 67.4266L67.916 66.7686ZM73.3281 72.9609L72.5752 73.619L73.3152 74.4657L74.0697 73.6319L73.3281 72.9609ZM75.8848 69.3086L76.7745 69.7651L76.7761 69.7619L75.8848 69.3086ZM76.7314 65.7061L75.837 66.1533L75.8429 66.165L75.8491 66.1766L76.7314 65.7061ZM76.3496 65.3076L76.8202 64.4253L76.8086 64.4191L76.7968 64.4132L76.3496 65.3076ZM74.8223 65.1084H73.8223V66.1084H74.8223V65.1084ZM74.8223 63.6143L74.8622 62.6151L73.8223 62.5735V63.6143H74.8223ZM76.0176 63.6807L76.083 62.6828L76.0813 62.6827L76.0176 63.6807ZM80.334 63.7637L80.2832 62.765L80.2823 62.765L80.334 63.7637ZM82.542 63.6143H83.542V62.5299L82.4612 62.6175L82.542 63.6143ZM82.542 65.1084V66.1084H83.542V65.1084H82.542ZM80.5996 65.4238L80.0646 64.579L80.058 64.5831L80.0516 64.5874L80.5996 65.4238ZM79.5537 66.918L80.453 67.3553L80.4556 67.3499L79.5537 66.918ZM77.1465 71.1348L76.3216 70.5695L76.3204 70.5712L77.1465 71.1348ZM74.5566 74.2559L73.8582 73.5402L73.1794 74.2026L73.805 74.9154L74.5566 74.2559ZM75.2705 75.0693L74.5189 75.7289L74.5231 75.7337L75.2705 75.0693ZM77.4453 77.1113L76.902 77.9509L76.9095 77.9557L77.4453 77.1113ZM80.6992 77.2109L81.1744 78.0908L81.1811 78.0872L81.1878 78.0834L80.6992 77.2109ZM82.3428 75.916L83.0436 75.2027L82.3294 74.501L81.6286 75.2161L82.3428 75.916ZM83.2891 76.8457L84.112 77.4138L84.5898 76.7217L83.9899 76.1324L83.2891 76.8457ZM67.5365 66.5227C68.4418 65.8437 69.1537 65.0288 69.6497 64.076L67.8757 63.1525C67.5305 63.8156 67.025 64.4063 66.3365 64.9227L67.5365 66.5227ZM69.6474 64.0805C70.1551 63.1171 70.4102 62.0827 70.4102 60.9912H68.4102C68.4102 61.7591 68.2336 62.4734 67.878 63.148L69.6474 64.0805ZM70.4102 60.9912C70.4102 59.8705 70.0561 58.8739 69.3075 58.0804L67.8527 59.4528C68.2109 59.8325 68.4102 60.3189 68.4102 60.9912H70.4102ZM69.3206 58.0946C68.5771 57.2752 67.6047 56.8701 66.4883 56.8701V58.8701C67.0763 58.8701 67.4984 59.0627 67.8395 59.4386L69.3206 58.0946ZM66.4883 56.8701C65.4962 56.8701 64.6228 57.2282 63.9395 57.9426L65.3848 59.325C65.6754 59.0211 66.0194 58.8701 66.4883 58.8701V56.8701ZM63.9391 57.9429C63.2601 58.6535 62.9482 59.5555 62.9482 60.5596H64.9482C64.9482 59.992 65.1123 59.6102 65.3851 59.3246L63.9391 57.9429ZM62.9482 60.5596C62.9482 61.4906 63.2782 62.4495 63.8264 63.4119L65.5642 62.422C65.1164 61.6358 64.9482 61.0231 64.9482 60.5596H62.9482ZM63.8291 63.4167C64.3837 64.378 65.1923 65.3811 66.2255 66.4258L67.6475 65.0195C66.6886 64.0499 66.003 63.1825 65.5615 62.4173L63.8291 63.4167ZM71.2692 75.1041L64.8776 67.5503L63.3509 68.8422L69.7425 76.3959L71.2692 75.1041ZM63.7283 67.2738C62.5385 67.7715 61.5678 68.4311 60.8997 69.2941L62.4812 70.5184C62.8756 70.009 63.5207 69.5286 64.5002 69.1188L63.7283 67.2738ZM60.8983 69.2959C60.2276 70.1663 59.9102 71.2012 59.9102 72.3467H61.9102C61.9102 71.5885 62.1129 70.9964 62.4826 70.5166L60.8983 69.2959ZM59.9102 72.3467C59.9102 74.0444 60.5331 75.5363 61.7359 76.7778L63.1723 75.3862C62.3165 74.5028 61.9102 73.5045 61.9102 72.3467H59.9102ZM61.7395 76.7816C62.9454 78.0134 64.4103 78.6592 66.0898 78.6592V76.6592C64.9803 76.6592 64.0214 76.2536 63.1687 75.3825L61.7395 76.7816ZM66.0898 78.6592C66.9527 78.6592 67.8125 78.4631 68.6619 78.0955L67.8674 76.26C67.2337 76.5343 66.6436 76.6592 66.0898 76.6592V78.6592ZM68.6619 78.0955C69.5087 77.7289 70.337 77.1964 71.1483 76.5164L69.8635 74.9836C69.1695 75.5653 68.5037 75.9846 67.8674 76.26L68.6619 78.0955ZM70.9972 76.3364C69.7824 77.4351 68.5841 78.2549 67.4046 78.8142L68.2614 80.6214C69.6496 79.9632 71.008 79.0232 72.3387 77.8198L70.9972 76.3364ZM67.411 78.8112C66.2324 79.3598 65.1478 79.6143 64.1475 79.6143V81.6143C65.4935 81.6143 66.8659 81.271 68.255 80.6244L67.411 78.8112ZM64.1475 79.6143C62.2402 79.6143 60.7543 79.0458 59.6041 77.961L58.2319 79.416C59.8042 80.8989 61.8047 81.6143 64.1475 81.6143V79.6143ZM59.6072 77.9639C58.4561 76.869 57.876 75.4984 57.876 73.7744H55.876C55.876 76.0127 56.6572 77.9181 58.2288 79.413L59.6072 77.9639ZM57.876 73.7744C57.876 72.366 58.3104 71.2209 59.1621 70.2776L57.6777 68.9373C56.4708 70.2739 55.876 71.9068 55.876 73.7744H57.876ZM59.1586 70.2815C60.038 69.3179 61.3994 68.5189 63.3367 67.9429L62.7668 66.0258C60.6091 66.6673 58.8826 67.617 57.6813 68.9333L59.1586 70.2815ZM63.7308 66.2503C62.9099 65.4909 62.3181 64.7376 61.9281 63.9957L60.1578 64.9262C60.6753 65.9108 61.4228 66.8398 62.3727 67.7185L63.7308 66.2503ZM61.9328 64.0046C61.5592 63.2762 61.3789 62.5355 61.3789 61.7715H59.3789C59.3789 62.8668 59.6413 63.9191 60.1532 64.9173L61.9328 64.0046ZM61.3789 61.7715C61.3789 60.4318 61.8834 59.3167 62.9516 58.3692L61.6245 56.873C60.1472 58.1833 59.3789 59.8351 59.3789 61.7715H61.3789ZM62.9484 58.3721C64.0287 57.4222 65.3791 56.9277 67.0693 56.9277V54.9277C64.9523 54.9277 63.1152 55.5622 61.6277 56.8701L62.9484 58.3721ZM67.0693 56.9277C68.4787 56.9277 69.5182 57.3004 70.2832 57.9623L71.5918 56.4498C70.3868 55.4073 68.8474 54.9277 67.0693 54.9277V56.9277ZM70.2881 57.9665C71.0421 58.6104 71.415 59.4186 71.415 60.4766H73.415C73.415 58.8562 72.8029 57.484 71.5869 56.4456L70.2881 57.9665ZM71.415 60.4766C71.415 61.589 71.1017 62.5689 70.473 63.4472L72.0993 64.6113C72.9758 63.3868 73.415 61.9982 73.415 60.4766H71.415ZM70.473 63.4472C69.8357 64.3376 68.8505 65.1575 67.4557 65.8808L68.3763 67.6563C69.9698 66.8301 71.2314 65.8239 72.0993 64.6113L70.473 63.4472ZM67.1631 67.4266L72.5752 73.619L74.0811 72.3029L68.669 66.1105L67.1631 67.4266ZM74.0697 73.6319C75.1741 72.4111 76.0781 71.1225 76.7745 69.7651L74.995 68.8521C74.3855 70.0403 73.585 71.1865 72.5866 72.29L74.0697 73.6319ZM76.7761 69.7619C77.4427 68.4514 77.8643 67.2718 77.8643 66.3037H75.8643C75.8643 66.7744 75.6328 67.5981 74.9934 68.8552L76.7761 69.7619ZM77.8643 66.3037C77.8643 65.9452 77.7957 65.5765 77.6138 65.2355L75.8491 66.1766C75.8443 66.1676 75.8643 66.1974 75.8643 66.3037H77.8643ZM77.6259 65.2588C77.4497 64.9066 77.1791 64.6167 76.8202 64.4253L75.879 66.19C75.8708 66.1856 75.8588 66.1773 75.8476 66.1655C75.8367 66.1542 75.8342 66.1476 75.837 66.1533L77.6259 65.2588ZM76.7968 64.4132C76.5171 64.2733 76.1947 64.2053 75.8979 64.1666L75.6392 66.1498C75.7368 66.1625 75.8075 66.1765 75.8557 66.189C75.906 66.2019 75.9167 66.2092 75.9024 66.202L76.7968 64.4132ZM75.8979 64.1666C75.5857 64.1259 75.2239 64.1084 74.8223 64.1084V66.1084C75.1733 66.1084 75.4423 66.1241 75.6392 66.1498L75.8979 64.1666ZM75.8223 65.1084V63.6143H73.8223V65.1084H75.8223ZM74.7823 64.6135C75.047 64.624 75.436 64.6456 75.9539 64.6786L76.0813 62.6827C75.5588 62.6493 75.1509 62.6266 74.8622 62.6151L74.7823 64.6135ZM75.9521 64.6785C77.2977 64.7668 78.2374 64.8135 78.7402 64.8135V62.8135C78.3134 62.8135 77.438 62.7717 76.083 62.6828L75.9521 64.6785ZM78.7402 64.8135C79.1845 64.8135 79.7345 64.796 80.3856 64.7623L80.2823 62.765C79.6497 62.7977 79.1371 62.8135 78.7402 62.8135V64.8135ZM80.3848 64.7624C81.0499 64.7286 81.7962 64.678 82.6228 64.611L82.4612 62.6175C81.6498 62.6833 80.924 62.7324 80.2832 62.765L80.3848 64.7624ZM81.542 63.6143V65.1084H83.542V63.6143H81.542ZM82.542 64.1084H81.9941V66.1084H82.542V64.1084ZM81.9941 64.1084C81.2986 64.1084 80.6195 64.2275 80.0646 64.579L81.1347 66.2686C81.2437 66.1996 81.4943 66.1084 81.9941 66.1084V64.1084ZM80.0516 64.5874C79.741 64.7908 79.4877 65.0823 79.2782 65.3816C79.0622 65.6901 78.8544 66.063 78.6518 66.4861L80.4556 67.3499C80.6294 66.9871 80.7839 66.7181 80.9166 66.5285C80.9823 66.4347 81.0373 66.3681 81.0804 66.3225C81.1016 66.3 81.1183 66.2844 81.1303 66.2741C81.1424 66.2637 81.1482 66.2599 81.1476 66.2603L80.0516 64.5874ZM78.6544 66.4806C77.8853 68.0622 77.107 69.4233 76.3216 70.5695L77.9714 71.7C78.824 70.4556 79.6505 69.0055 80.453 67.3553L78.6544 66.4806ZM76.3204 70.5712C75.5456 71.7069 74.7242 72.6951 73.8582 73.5402L75.2551 74.9715C76.2263 74.0237 77.1315 72.9311 77.9725 71.6983L76.3204 70.5712ZM73.805 74.9154L74.5189 75.7289L76.0221 74.4097L75.3083 73.5963L73.805 74.9154ZM74.5231 75.7337C75.4219 76.7448 76.2198 77.5094 76.9021 77.9509L77.9886 76.2718C77.5419 75.9827 76.89 75.3861 76.0179 74.405L74.5231 75.7337ZM76.9095 77.9557C77.6153 78.4036 78.374 78.6592 79.1719 78.6592V76.6592C78.8187 76.6592 78.4264 76.5496 77.9811 76.267L76.9095 77.9557ZM79.1719 78.6592C79.8508 78.6592 80.5243 78.4419 81.1744 78.0908L80.2241 76.331C79.7674 76.5777 79.4226 76.6592 79.1719 76.6592V78.6592ZM81.1878 78.0834C81.8402 77.7181 82.4622 77.2228 83.057 76.6159L81.6286 75.2161C81.1387 75.716 80.665 76.084 80.2106 76.3384L81.1878 78.0834ZM81.642 76.6294L82.5882 77.559L83.9899 76.1324L83.0436 75.2027L81.642 76.6294ZM82.4661 76.2776C81.6594 77.4462 80.817 78.279 79.9526 78.8205L81.0142 80.5154C82.1641 79.7952 83.1921 78.7465 84.112 77.4138L82.4661 76.2776ZM79.9526 78.8205C79.0974 79.3561 78.2067 79.6143 77.2627 79.6143V81.6143C78.5986 81.6143 79.8551 81.2415 81.0142 80.5154L79.9526 78.8205ZM77.2627 79.6143C76.5666 79.6143 75.8825 79.4194 75.1957 78.9981L74.15 80.703C75.1234 81.3 76.1658 81.6143 77.2627 81.6143V79.6143ZM75.1957 78.9981C74.4949 78.5684 73.5723 77.7343 72.4202 76.4192L70.9158 77.7371C72.11 79.1003 73.1906 80.1146 74.15 80.703L75.1957 78.9981Z" fill="white" mask="url(#path-5-outside-1_27_89)"/>
</svg>
